<svg width="105" height="16" viewBox="0 0 105 16" fill="none" xmlns="http://www.w3.org/2000/svg">
  <path d="M26.9617 8.91633V7.5654H31.4072C31.4526 7.80351 31.4791 8.08681 31.4791 8.39366C31.4791 9.4068 31.2065 10.6612 30.3292 11.5538C29.4756 12.4584 28.385 12.9409 26.9386 12.9409C24.2594 12.9409 22.0068 10.7216 22.0068 7.99559C22.0068 5.26961 24.2594 3.05029 26.9386 3.05029C28.4205 3.05029 29.4756 3.64134 30.2699 4.4133L29.3333 5.36615C28.7643 4.82341 27.9937 4.40124 26.9386 4.40124C24.9824 4.40124 23.4531 6.00541 23.4531 7.99562C23.4531 9.98583 24.9824 11.5901 26.9386 11.5901C28.2071 11.5901 28.9302 11.0714 29.3926 10.601C29.7693 10.2178 30.0175 9.66799 30.1137 8.91636L26.9617 8.91633Z" fill="white"/>
  <path d="M38.2534 9.7566C38.2534 11.59 36.8427 12.9408 35.1119 12.9408C33.381 12.9408 31.9702 11.59 31.9702 9.7566C31.9702 7.91114 33.381 6.57227 35.1119 6.57227C36.8428 6.57227 38.2534 7.91114 38.2534 9.7566ZM36.8782 9.7566C36.8782 8.61068 36.0603 7.82668 35.1119 7.82668C34.1635 7.82668 33.3454 8.61068 33.3454 9.7566C33.3454 10.8904 34.1634 11.6864 35.1119 11.6864C36.0604 11.6864 36.8782 10.8904 36.8782 9.7566Z" fill="white"/>
  <path d="M45.107 9.7566C45.107 11.59 43.6962 12.9408 41.9654 12.9408C40.2346 12.9408 38.8237 11.59 38.8237 9.7566C38.8237 7.91114 40.2345 6.57227 41.9654 6.57227C43.6963 6.57227 45.107 7.91114 45.107 9.7566ZM43.7318 9.7566C43.7318 8.61068 42.9138 7.82668 41.9654 7.82668C41.017 7.82668 40.1989 8.61068 40.1989 9.7566C40.1989 10.8904 41.0169 11.6864 41.9654 11.6864C42.9139 11.6864 43.7318 10.8904 43.7318 9.7566Z" fill="white"/>
  <path d="M51.6758 6.76522V12.4825C51.6758 14.8346 50.3125 15.7995 48.7001 15.7995C47.1826 15.7995 46.2698 14.7622 45.926 13.9179L47.1234 13.4112C47.3367 13.9299 47.8583 14.5451 48.7001 14.5451C49.7315 14.5451 50.3717 13.8937 50.3717 12.6755V12.2172H50.3243C50.016 12.6031 49.4233 12.9408 48.6764 12.9408C47.1115 12.9408 45.677 11.5537 45.677 9.76865C45.677 7.97142 47.1114 6.57227 48.6764 6.57227C49.4233 6.57227 50.016 6.90997 50.3243 7.28393H50.3717V6.76522H51.6758ZM50.4666 9.76865C50.4666 8.64684 49.7315 7.82667 48.795 7.82667C47.8465 7.82667 47.0522 8.64684 47.0522 9.76865C47.0522 10.8783 47.8465 11.6864 48.795 11.6864C49.7315 11.6864 50.4666 10.8783 50.4666 9.76865Z" fill="white"/>
  <path d="M54.0051 3.41943V12.748H52.6299V3.41943H54.0051Z" fill="white"/>
  <path d="M59.3157 10.8059L60.3827 11.5296C60.0388 12.0482 59.209 12.9408 57.7745 12.9408C55.9963 12.9408 54.6685 11.5417 54.6685 9.7566C54.6685 7.86283 56.0081 6.57227 57.6204 6.57227C59.2446 6.57227 60.0388 7.88703 60.2997 8.59863L60.4419 8.96044L56.257 10.7215C56.5772 11.3608 57.0751 11.6864 57.7745 11.6864C58.4739 11.6864 58.96 11.3367 59.3157 10.8059ZM56.0318 9.66008L58.8296 8.47801C58.6755 8.08002 58.2131 7.8026 57.6678 7.8026C56.9683 7.8026 55.9963 8.4298 56.0318 9.66011L56.0318 9.66008Z" fill="white"/>
  <path d="M3.31469 12.0404C1.98504 10.7582 1.31086 9.39639 1.31086 7.9929V1.33335H13.1084L13.6309 0.681564L13.1084 0H0.491577C0.220157 7.47028e-05 0 0.223909 0 0.500011V7.9929C0 9.77676 0.811787 11.4641 2.41282 13.008C3.98701 14.526 5.9317 15.4824 6.9508 15.928L7.0155 15.9563C7.07677 15.9831 7.14429 15.9997 7.20963 16C7.27644 16.0003 7.34112 15.9837 7.40377 15.9563L7.46847 15.928C7.8327 15.7687 8.31548 15.5438 8.85703 15.2517C8.6179 14.9623 8.39994 14.6483 8.39994 14.6483C8.39994 14.6483 7.21113 14.6056 7.20963 14.6049C6.22623 14.1538 4.61928 13.2984 3.31469 12.0404Z" fill="#2B82FB"/>
  <path d="M13.9278 1.8689e-08H13.1085V7.99288C13.1085 9.39637 12.4343 10.7582 11.1047 12.0403C9.80007 13.2984 8.19312 14.1538 7.20972 14.6049C7.21197 14.6059 7.94968 14.8854 8.85711 15.2517C9.83074 14.7266 10.995 13.9834 12.0065 13.008C13.6075 11.464 14.4193 9.77671 14.4193 7.99285V0.500011C14.4193 0.22381 14.1993 -7.46841e-05 13.9278 1.8689e-08Z" fill="#00AB47"/>
  <path d="M5.81288 11.5748L6.88336 11.5078L7.20964 10.8309C6.55762 10.5129 5.94368 10.1089 5.49519 9.66229C4.89321 9.06288 4.58796 8.44733 4.58796 7.8328V4.66684L4.99441 3.9979L4.58796 3.3335H3.76868C3.49726 3.33357 3.2771 3.5574 3.2771 3.83351V7.83277C3.2771 9.43009 4.44905 10.7191 5.81286 11.5748H5.81288Z" fill="#FFBA00"/>
  <path d="M9.83129 4.6666V7.83053C9.83129 8.44529 9.52599 9.06121 8.92385 9.66125C8.47512 10.1084 7.86126 10.5127 7.2096 10.8306L5.81284 11.5746C6.18454 11.8078 6.57041 12.009 6.95077 12.1753L7.01547 12.2036C7.07763 12.2308 7.14331 12.25 7.2096 12.2499C7.27548 12.2499 7.34197 12.2306 7.40374 12.2036L7.46844 12.1753C7.99091 11.9468 8.99389 11.458 9.84123 10.6137C10.6923 9.76556 11.1421 8.80319 11.1421 7.83053V3.83326C11.1421 3.55706 10.9221 3.33318 10.6505 3.33325H4.58789V4.66657H9.83126L9.83129 4.6666Z" fill="#FD2C25"/>
  <path d="M102.616 12.8565C102.167 12.8565 101.77 12.7845 101.424 12.6404C101.086 12.4884 100.802 12.2883 100.574 12.0402C100.354 11.7841 100.189 11.508 100.079 11.2119L100.976 10.8038C101.133 11.1719 101.361 11.456 101.66 11.6561C101.959 11.8562 102.301 11.9562 102.687 11.9562C103.057 11.9562 103.363 11.8802 103.607 11.7281C103.859 11.5761 103.985 11.352 103.985 11.0559C103.985 10.8718 103.934 10.7198 103.831 10.5997C103.729 10.4717 103.58 10.3637 103.383 10.2756C103.186 10.1876 102.946 10.1076 102.663 10.0356L101.931 9.84349C101.648 9.76346 101.381 9.65143 101.129 9.50738C100.877 9.36333 100.673 9.17927 100.515 8.9552C100.366 8.72312 100.291 8.44303 100.291 8.11492C100.291 7.7468 100.397 7.4307 100.61 7.16661C100.822 6.90252 101.101 6.70246 101.448 6.56641C101.794 6.42237 102.164 6.35034 102.557 6.35034C102.903 6.35034 103.226 6.40236 103.525 6.50639C103.831 6.60242 104.099 6.75047 104.327 6.95054C104.555 7.1426 104.728 7.38268 104.846 7.67078L103.973 8.07891C103.824 7.77481 103.623 7.56274 103.371 7.4427C103.119 7.32266 102.84 7.26264 102.533 7.26264C102.203 7.26264 101.916 7.33867 101.672 7.49072C101.428 7.63476 101.306 7.83483 101.306 8.09091C101.306 8.347 101.404 8.53906 101.601 8.6671C101.806 8.79515 102.053 8.89918 102.344 8.97921L103.218 9.20728C103.808 9.35933 104.252 9.58741 104.551 9.89151C104.85 10.1876 105 10.5517 105 10.9839C105 11.368 104.894 11.7001 104.681 11.9802C104.469 12.2603 104.182 12.4764 103.82 12.6284C103.458 12.7805 103.057 12.8565 102.616 12.8565Z" fill="white"/>
  <path d="M93.4187 15.2573V6.5424H94.3746V7.45471H94.4218C94.532 7.26264 94.6854 7.08258 94.8821 6.91453C95.0866 6.74647 95.3227 6.61043 95.5902 6.50639C95.8577 6.40236 96.1527 6.35034 96.4753 6.35034C97.026 6.35034 97.5177 6.49039 97.9505 6.77048C98.3832 7.05057 98.7254 7.4347 98.9772 7.92286C99.229 8.41102 99.3548 8.9712 99.3548 9.60341C99.3548 10.2356 99.229 10.7958 98.9772 11.284C98.7254 11.7721 98.3832 12.1563 97.9505 12.4363C97.5177 12.7164 97.026 12.8565 96.4753 12.8565C95.9954 12.8565 95.5744 12.7444 95.2125 12.5204C94.8506 12.2963 94.587 12.0442 94.4218 11.7641H94.3746L94.4218 12.6044V15.2573H93.4187ZM96.3691 11.9322C96.7152 11.9322 97.0378 11.8401 97.3368 11.6561C97.6436 11.464 97.8875 11.1919 98.0685 10.8398C98.2573 10.4877 98.3517 10.0756 98.3517 9.60341C98.3517 9.12325 98.2573 8.71112 98.0685 8.36701C97.8875 8.01489 97.6436 7.7468 97.3368 7.56274C97.0378 7.37068 96.7152 7.27465 96.3691 7.27465C96.0229 7.27465 95.6964 7.37068 95.3895 7.56274C95.0906 7.7468 94.8467 8.01489 94.6579 8.36701C94.469 8.71112 94.3746 9.12325 94.3746 9.60341C94.3746 10.0836 94.469 10.4997 94.6579 10.8518C94.8467 11.1959 95.0906 11.464 95.3895 11.6561C95.6964 11.8401 96.0229 11.9322 96.3691 11.9322Z" fill="white"/>
  <path d="M88.1229 12.8564C87.5013 12.8564 86.927 12.7404 86.3999 12.5083C85.8727 12.2762 85.4125 11.9561 85.0191 11.548C84.6336 11.1318 84.3307 10.6557 84.1104 10.1195C83.898 9.57532 83.7917 8.99112 83.7917 8.36692C83.7917 7.74271 83.898 7.16252 84.1104 6.62635C84.3307 6.08217 84.6336 5.60601 85.0191 5.19788C85.4125 4.78174 85.8727 4.45763 86.3999 4.22556C86.927 3.99348 87.5013 3.87744 88.1229 3.87744C88.7444 3.87744 89.3188 3.99348 89.8459 4.22556C90.373 4.45763 90.8294 4.78174 91.2149 5.19788C91.6083 5.60601 91.9112 6.08217 92.1236 6.62635C92.3439 7.16252 92.454 7.74271 92.454 8.36692C92.454 8.99112 92.3439 9.57532 92.1236 10.1195C91.9112 10.6557 91.6083 11.1318 91.2149 11.548C90.8294 11.9561 90.373 12.2762 89.8459 12.5083C89.3188 12.7404 88.7444 12.8564 88.1229 12.8564ZM88.1229 11.8841C88.7366 11.8841 89.2912 11.736 89.7869 11.4399C90.2904 11.1438 90.6917 10.7317 90.9906 10.2035C91.2896 9.66735 91.4391 9.05514 91.4391 8.36692C91.4391 7.67069 91.2896 7.05849 90.9906 6.53031C90.6917 6.00214 90.2904 5.59001 89.7869 5.29391C89.2912 4.99781 88.7366 4.84976 88.1229 4.84976C87.5171 4.84976 86.9624 4.99781 86.4589 5.29391C85.9554 5.59001 85.5541 6.00214 85.2551 6.53031C84.9562 7.05849 84.8067 7.67069 84.8067 8.36692C84.8067 9.05514 84.9562 9.66735 85.2551 10.2035C85.5541 10.7317 85.9554 11.1438 86.4589 11.4399C86.9624 11.736 87.5171 11.8841 88.1229 11.8841Z" fill="white"/>
  <path d="M80.1842 12.8565C79.5941 12.8565 79.067 12.7164 78.6028 12.4363C78.1465 12.1482 77.7885 11.7601 77.5289 11.272C77.2692 10.7758 77.1394 10.2196 77.1394 9.60341C77.1394 8.97921 77.2692 8.42302 77.5289 7.93486C77.7885 7.4467 78.1465 7.06258 78.6028 6.78248C79.067 6.49439 79.5941 6.35034 80.1842 6.35034C80.8608 6.35034 81.4155 6.51039 81.8482 6.8305C82.2888 7.1426 82.5996 7.54674 82.7805 8.0429L81.8718 8.42703C81.7223 8.0509 81.4981 7.76681 81.1991 7.57474C80.908 7.37468 80.554 7.27465 80.137 7.27465C79.7829 7.27465 79.4525 7.37068 79.1457 7.56274C78.8467 7.7548 78.6028 8.02689 78.414 8.37901C78.2251 8.72312 78.1307 9.13126 78.1307 9.60341C78.1307 10.0676 78.2251 10.4757 78.414 10.8278C78.6028 11.1799 78.8467 11.452 79.1457 11.6441C79.4525 11.8361 79.7829 11.9322 80.137 11.9322C80.5618 11.9322 80.9277 11.8321 81.2345 11.6321C81.5414 11.432 81.7695 11.1479 81.919 10.7798L82.8159 11.1639C82.6192 11.6361 82.3006 12.0362 81.86 12.3643C81.4194 12.6924 80.8608 12.8565 80.1842 12.8565Z" fill="white"/>
  <path d="M73.448 12.8565C72.8658 12.8565 72.3465 12.7164 71.8902 12.4363C71.4418 12.1563 71.0877 11.7721 70.8281 11.284C70.5763 10.7958 70.4504 10.2396 70.4504 9.61542C70.4504 9.03122 70.5685 8.49105 70.8045 7.99488C71.0484 7.49872 71.3867 7.10259 71.8194 6.80649C72.26 6.50239 72.7753 6.35034 73.3654 6.35034C73.9633 6.35034 74.4747 6.48639 74.8996 6.75848C75.3323 7.02256 75.6628 7.39068 75.8909 7.86284C76.1269 8.33499 76.245 8.87517 76.245 9.48337C76.245 9.53939 76.241 9.59541 76.2332 9.65143C76.2332 9.70745 76.2292 9.75546 76.2214 9.79548H71.4536C71.4772 10.2356 71.5755 10.6077 71.7486 10.9118C71.9453 11.256 72.1971 11.512 72.5039 11.6801C72.8186 11.8482 73.1451 11.9322 73.4834 11.9322C73.924 11.9322 74.2859 11.8281 74.5692 11.6201C74.8603 11.404 75.0924 11.1399 75.2654 10.8278L76.1151 11.248C75.8791 11.7121 75.5408 12.0962 75.1002 12.4003C74.6596 12.7044 74.1089 12.8565 73.448 12.8565ZM71.5126 8.9552H75.1828C75.175 8.78714 75.1356 8.60708 75.0648 8.41502C75.0019 8.21496 74.8957 8.03089 74.7462 7.86284C74.6046 7.68678 74.4197 7.54674 74.1915 7.4427C73.9712 7.33066 73.6958 7.27465 73.3654 7.27465C72.972 7.27465 72.6298 7.37868 72.3387 7.58675C72.0554 7.78681 71.8391 8.06291 71.6896 8.41502C71.6109 8.58308 71.5519 8.76314 71.5126 8.9552Z" fill="white"/>
  <path d="M66.9421 12.8564C66.533 12.8564 66.1278 12.7684 65.7265 12.5923C65.3253 12.4163 64.9712 12.1562 64.6644 11.8121C64.3575 11.4679 64.1333 11.0398 63.9917 10.5276L64.9476 10.1315C65.0814 10.6277 65.3253 11.0438 65.6793 11.3799C66.0334 11.716 66.4621 11.8841 66.9657 11.8841C67.2804 11.8841 67.5675 11.8281 67.8272 11.716C68.0947 11.596 68.3071 11.4239 68.4645 11.1999C68.6297 10.9758 68.7123 10.7037 68.7123 10.3836C68.7123 10.0955 68.6415 9.85141 68.4999 9.65134C68.3661 9.45128 68.1616 9.27522 67.8862 9.12317C67.6108 8.96312 67.2725 8.81107 66.8713 8.66702L66.3402 8.47495C66.1042 8.38693 65.8642 8.28289 65.6203 8.16285C65.3843 8.03481 65.164 7.88276 64.9594 7.7067C64.7627 7.52264 64.6054 7.30657 64.4874 7.05849C64.3693 6.8024 64.3103 6.50231 64.3103 6.15819C64.3103 5.74205 64.4205 5.36193 64.6408 5.01782C64.8611 4.6737 65.164 4.39761 65.5495 4.18954C65.935 3.98148 66.3795 3.87744 66.8831 3.87744C67.4102 3.87744 67.8508 3.97747 68.2048 4.17754C68.5667 4.3696 68.85 4.60168 69.0545 4.87377C69.267 5.13786 69.4086 5.38194 69.4794 5.60601L68.5471 6.01414C68.4999 5.84609 68.4094 5.67403 68.2756 5.49797C68.1419 5.31391 67.9609 5.16186 67.7328 5.04182C67.5125 4.91378 67.2332 4.84976 66.8949 4.84976C66.6195 4.84976 66.3599 4.90578 66.116 5.01782C65.8799 5.12985 65.6872 5.2859 65.5377 5.48597C65.3961 5.67803 65.3253 5.90211 65.3253 6.15819C65.3253 6.51831 65.4669 6.8024 65.7501 7.01047C66.0334 7.21854 66.4149 7.4066 66.8949 7.57466L67.4495 7.76672C67.7013 7.85475 67.957 7.96279 68.2166 8.09083C68.4841 8.21887 68.732 8.38292 68.9601 8.58299C69.1883 8.78306 69.3732 9.03114 69.5148 9.32723C69.6564 9.61533 69.7272 9.96344 69.7272 10.3716C69.7272 10.8117 69.6407 11.1918 69.4676 11.512C69.3024 11.8241 69.0821 12.0801 68.8067 12.2802C68.5313 12.4803 68.2284 12.6243 67.898 12.7123C67.5754 12.8084 67.2568 12.8564 66.9421 12.8564Z" fill="white"/>
</svg>
